<?xml version="1.0" encoding="UTF-8" standalone="no"?>
<svg
   xmlns:dc="http://purl.org/dc/elements/1.1/"
   xmlns:cc="http://creativecommons.org/ns#"
   xmlns:rdf="http://www.w3.org/1999/02/22-rdf-syntax-ns#"
   xmlns:svg="http://www.w3.org/2000/svg"
   xmlns="http://www.w3.org/2000/svg"
   xmlns:sodipodi="http://sodipodi.sourceforge.net/DTD/sodipodi-0.dtd"
   xmlns:inkscape="http://www.inkscape.org/namespaces/inkscape"
   width="24"
   height="24"
   viewBox="0 0 24 24"
   version="1.1"
   id="svg6"
   sodipodi:docname="round-person_outline-24px.svg"
   inkscape:version="0.92.3 (2405546, 2018-03-11)">
  <metadata
     id="metadata12">
    <rdf:RDF>
      <cc:Work
         rdf:about="">
        <dc:format>image/svg+xml</dc:format>
        <dc:type
           rdf:resource="http://purl.org/dc/dcmitype/StillImage" />
      </cc:Work>
    </rdf:RDF>
  </metadata>
  <defs
     id="defs10" />
  <sodipodi:namedview
     pagecolor="#ffffff"
     bordercolor="#666666"
     borderopacity="1"
     objecttolerance="10"
     gridtolerance="10"
     guidetolerance="10"
     inkscape:pageopacity="0"
     inkscape:pageshadow="2"
     inkscape:window-width="1366"
     inkscape:window-height="705"
     id="namedview8"
     showgrid="false"
     inkscape:zoom="9.8333333"
     inkscape:cx="12"
     inkscape:cy="12"
     inkscape:window-x="0"
     inkscape:window-y="30"
     inkscape:window-maximized="1"
     inkscape:current-layer="svg6" />
  <path
     fill="none"
     d="M0 0h24v24H0V0z"
     id="path2" />
  <path
     d="m 12,7.425 c 0.87,0 1.575,0.705 1.575,1.575 0,0.87 -0.705,1.575 -1.575,1.575 C 11.13,10.575 10.425,9.87 10.425,9 10.425,8.13 11.13,7.425 12,7.425 m 0,6.75 c 2.2275,0 4.575,1.095 4.575,1.575 v 0.825 H 7.425 V 15.75 c 0,-0.48 2.3475,-1.575 4.575,-1.575 M 12,6 c -1.6575,0 -3,1.3425 -3,3 0,1.6575 1.3425,3 3,3 1.6575,0 3,-1.3425 3,-3 0,-1.6575 -1.3425,-3 -3,-3 z m 0,6.75 c -2.0025,0 -6,1.005 -6,3 v 1.5 C 6,17.6625 6.3375,18 6.75,18 h 10.5 C 17.6625,18 18,17.6625 18,17.25 v -1.5 c 0,-1.995 -3.9975,-3 -6,-3 z"
     id="path4"
     style="fill:#ffffff;stroke-width:0.75"
     inkscape:connector-curvature="0" />
</svg>
